<svg xmlns="http://www.w3.org/2000/svg" width="688" height="134" viewBox="0 0 688 134"><defs><linearGradient id="tyika" x1="352.38" x2="346.37" y1="-13.2" y2="104.76" gradientUnits="userSpaceOnUse"><stop offset="0" stop-opacity="0"/><stop offset=".16" stop-opacity=".02"/><stop offset="1"/></linearGradient></defs><g><g clip-path="url(#clip-F1DC07B3-B38A-479F-954E-68E38F88ECC7)" opacity=".1" transform="rotate(2 346.5 -6.5)"><path fill="url(#tyika)" d="M698.114 111.411l-26.8-5.662s6.514-20.512-9.897-32.036c-16.41-11.524-31.933 3.553-31.933 3.553s1.459-24.27-16.555-28.118c-18.014-3.82-29.123 13.156-29.123 13.156s-6.88-23.424-27.573-20.228c-20.693 3.196-21.482 20.228-21.482 20.228S523.605 44.5 503.756 51.05c-19.848 6.55-15.518 26.216-15.518 26.216s-18.967-14.86-32.632-1.518c-13.665 13.343-5.926 30-5.926 30s-5.3-3.563-11.939-3.563c-6.638 0-9.84 5.027-9.84 5.027s-7.502-2.63-14.616 0-8.801 7.11-8.801 7.11-4.95-12.137-18.91-12.137c-13.962 0-17.532 14.637-17.532 14.637s-7.317-14.637-22.558-9.61c-15.189 5.026-10.863 19.93-10.863 19.93s-9.981-6.317-17.493-3.924c-7.51 2.393-13.416 12.131-13.416 12.131s-2.639-24.55-20.647-28.137c-18.008-3.588-30.126 13.583-30.126 13.583s-5.961-21.869-26.455-21.869c-20.439 0-26.687 21.869-26.687 21.869s-17.313-18.998-35.313-11.485c-18 7.512-15.102 30.03-15.102 30.03s-7.898-8.666-15.144-8.666c-7.27 0-13.618 2.46-13.618 2.46s1.444-13.812-6.425-16.312c-7.869-2.5-16.711 1.627-16.711 1.627s1.126-9.398-7.93-14.454c-9.07-5.069-19.335 5.315-19.335 5.315s-4.25-12.075-15.231-10.384c-10.98 1.692-11.775 12.485-11.775 12.485s-5.73-9.182-16.835-7.415c-11.155 1.753-9.808 16.799-9.808 16.799s-4.299-8.974-13.377-6.474c-9.08 2.5-9.08 10.608-9.08 10.608v-259.074l704 5.8z"/></g></g></svg>