<svg xmlns="http://www.w3.org/2000/svg" width="688" height="133" viewBox="0 0 688 133"><defs><linearGradient id="8hw6a" x1="298.21" x2="291.4" y1="-31.95" y2="101.76" gradientUnits="userSpaceOnUse"><stop offset="0" stop-opacity="0"/><stop offset=".16" stop-opacity=".02"/><stop offset="1"/></linearGradient></defs><g><g clip-path="url(#clip-F1DC07B3-B38A-479F-954E-68E38F88ECC7)" opacity=".07" transform="rotate(-4 291.5 -30)"><path fill="url(#8hw6a)" d="M-107.597 109.296l30.377-6.419s-7.383-23.25 11.223-36.313C-47.4 53.5-29.838 70.592-29.838 70.592s-1.62-27.543 18.84-31.873c20.378-4.33 33 14.913 33 14.913s7.769-26.552 31.225-22.93c23.457 3.624 24.35 22.93 24.35 22.93s12.635-20.18 35.134-12.757c22.499 7.424 17.59 29.717 17.59 29.717s21.5-16.846 36.99-1.721c15.49 15.122 6.712 34.006 6.712 34.006s6-4.04 13.538-4.04c7.524 0 11.154 5.699 11.154 5.699s8.503-2.981 16.567 0c8.064 2.98 9.944 8.059 9.944 8.059s5.642-13.757 21.468-13.757c15.825 0 19.872 16.59 19.872 16.59s8.294-16.59 25.54-10.892c17.247 5.697 12.344 22.59 12.344 22.59s11.314-7.133 19.828-4.447c8.514 2.713 15.207 13.751 15.207 13.751s2.992-27.828 23.404-31.894c20.413-4.067 34.134 15.397 34.134 15.397s6.772-24.789 30-24.789c23.17 0 30.253 24.789 30.253 24.789s19.652-21.535 40.047-13.02c20.395 8.516 17.1 34.08 17.1 34.08s8.925-9.862 17.165-9.862c8.24 0 15.435 2.79 15.435 2.79s-1.635-15.658 7.284-18.492c8.92-2.834 18.955 1.844 18.955 1.844s-1.24-10.652 8.976-16.39c10.264-5.739 21.917 6.03 21.917 6.03s4.868-13.686 17.265-11.769c12.447 1.917 13.347 14.152 13.347 14.152s6.439-10.409 19.083-8.414c12.644 1.995 11.118 19.05 11.118 19.05s4.872-10.172 15.163-7.337c10.292 2.834 10.292 12.024 10.292 12.024v-293.626l-798 6.534z"/></g></g></svg>